PathFileType	4	(X/Y/Z)	67_2_10_p0_0-280_filt_butterworth.trc
DataRate	CameraRate	NumFrames	NumMarkers	Units	OrigDataRate	OrigDataStartFrame	OrigNumFrames
59.0	59.0	6	27	m	59.0	105	280
Frame#	Time	RHip			RKnee			RAnkle			RBigToe			RSmallToe			RHeel			LHip			LKnee			LAnkle			LBigToe			LSmallToe			LHeel			Neck			Head			Nose			RShoulder			RElbow			RWrist			RThumb			RIndex			RPinky			LShoulder			LElbow			LWrist			LThumb			LIndex			LPinky			
		X1	Y1	Z1	X2	Y2	Z2	X3	Y3	Z3	X4	Y4	Z4	X5	Y5	Z5	X6	Y6	Z6	X7	Y7	Z7	X8	Y8	Z8	X9	Y9	Z9	X10	Y10	Z10	X11	Y11	Z11	X12	Y12	Z12	X13	Y13	Z13	X14	Y14	Z14	X15	Y15	Z15	X16	Y16	Z16	X17	Y17	Z17	X18	Y18	Z18	X19	Y19	Z19	X20	Y20	Z20	X21	Y21	Z21	X22	Y22	Z22	X23	Y23	Z23	X24	Y24	Z24	X25	Y25	Z25	X26	Y26	Z26	X27	Y27	Z27	
105	1.7796610169491525	0.3680242208017897	0.4933192240540466	-0.09571429308277475	0.3498394766036593	0.68854485504651	0.34762935533201267	0.3420002214896179	0.8517473233954289	0.7576125657609379	0.34820685585671035	0.6161555441582636	0.8034302795739372	0.4040385614114481	0.6664899461997922	0.8046831100081067	0.32594276238802805	0.9296824781180822	0.8088490037916072	0.20207590514137758	0.48770799694301226	-0.10397567359557094	0.17462435650048727	0.7040628941824378	0.33691176542770007	0.17758367430263625	0.8318841365311893	0.7402732199828662	0.20961536488010235	0.6675864348740176	0.8038101189333394	0.15708274524409846	0.6903266880316337	0.7900963990429173	0.19525478521727993	0.8843378107186187	0.8071210200081492	0.3064591903973756	0.3771264203933692	-0.6441977362025973	0.33024118196209823	0.2585042248375521	-0.8680999760808112	0.33274413024027516	0.2521038840722063	-0.7390156199684167	0.4500531881740303	0.3869654949850361	-0.5287018153668352	0.4486902311583431	0.42997487640527	-0.2580198933296585	0.4237120270208244	0.41784824377862745	0.005292504398009678	0.37220757924338904	0.350411950755657	0.11372476804483918	0.3895986637901181	0.38947394448157363	0.1414008798167833	0.3895003537083047	0.4257602445443497	0.1376270778071007	0.15575887812214778	0.3989494102869173	-0.5583278195270458	0.1438609391309554	0.3958709655132474	-0.30222343438460136	0.17743578729489778	0.36058820087453136	-0.03683107969453568	0.24718304974703076	0.3180326534690427	0.05963072606314071	0.22268805380831663	0.30908141184241605	0.07264317915429544	0.1730717925785258	0.38849692439003497	0.07182043866244248
106	1.7966101694915255	0.36814966473201094	0.49311920500450446	-0.09552473756746921	0.350799062984455	0.6845710959258849	0.34672987777342856	0.34199019145071635	0.8518368877847046	0.7576264391819396	0.34756295159887907	0.6242592651606687	0.8057624042345618	0.4036938894331582	0.6681552414421184	0.8047659228520838	0.3258696974123363	0.9284745293994702	0.8066301623143399	0.2021340102963054	0.48747273847844735	-0.10390164506044625	0.17481919455081663	0.7040858207269547	0.33769355403057183	0.17748346144309096	0.8315008767606115	0.7397914067548231	0.20964033574495664	0.6694530923442764	0.8020232632665261	0.15714996076997248	0.6900187797140303	0.7901154916380786	0.1958602776871455	0.8874346163654461	0.8069251817735147	0.30642823832060806	0.37714381918657436	-0.6441917102766891	0.3302354315369599	0.25845873821585136	-0.8680970673584567	0.3324473931343121	0.2509660376840636	-0.7390897008085505	0.4500498585105642	0.3869345833174691	-0.5286953776994032	0.44897768067075006	0.4302961590948669	-0.25703260313957454	0.42382061413121896	0.4180618993969676	0.005670211623911023	0.3730991751192936	0.3545081821656831	0.11510723123882984	0.3909489280258136	0.38724157873263426	0.1424678309512541	0.39159543650789375	0.42473894081069896	0.13944321174547103	0.155941345680927	0.3989424356581491	-0.5587076063077145	0.14343748746513024	0.3957881572482051	-0.3021756190656562	0.17718547715990796	0.3590921990686076	-0.03895820997577871	0.24471285084684535	0.31646281135823184	0.05702480575901034	0.2195072782393353	0.31602441438415313	0.07167394769775191	0.17277349722648402	0.3871374980916077	0.0691167782325082
107	1.8135593220338984	0.36818887626121294	0.49138707717013186	-0.09538560774520308	0.35302725273496977	0.6789906830447682	0.3432366773475608	0.34198313774874417	0.8519689019660772	0.7576404064142314	0.34693018891660504	0.6309978406763268	0.8076902181116081	0.4027019472576743	0.6722569086247657	0.80496095690304	0.3258427030752338	0.9268116022737964	0.8041027213284516	0.20216979015333275	0.48733623127704007	-0.10387246696548244	0.17510236195770484	0.7038931871522234	0.3360600830633641	0.17721557380256214	0.8306537781214517	0.7384565606712892	0.20874879727272705	0.6709526466592665	0.8001635914779177	0.15708178496059572	0.690046657468098	0.7901674341149525	0.1967777669313209	0.8917478786778462	0.8062578105701944	0.3064155344672684	0.3771615151650305	-0.64418237055878	0.3302799852985331	0.25844327396295536	-0.8681272010933986	0.3316814321937581	0.24797577373699284	-0.7392719303299907	0.45006995510776177	0.3869080504956644	-0.5287060525451538	0.44997073341664423	0.43074104677537434	-0.25578484240299176	0.423953854433618	0.4188303451707526	0.0065798478554298725	0.37462261679135833	0.36194352658460266	0.11735379949376296	0.39268708678827974	0.38630433362092764	0.14383290184430803	0.3942218384061553	0.4251465102225963	0.14054420890760608	0.1560906107430271	0.3989379292112086	-0.5595771343774965	0.14235389829869363	0.3955469975860775	-0.3021181758565905	0.17692935441775814	0.3575229233262799	-0.04149176919744078	0.24119429906577547	0.31411123902113336	0.05364121407138252	0.21501342776529728	0.32518188259313113	0.07118020208260147	0.1726379238628346	0.38545105983563166	0.06553381471973198
108	1.8305084745762712	0.36808443668651775	0.48767004565187405	-0.09543885520182796	0.35525957150736087	0.6707156218459122	0.3370310151444915	0.3419786954560595	0.8521358269048521	0.7576537649853302	0.34540561098266426	0.6349968206854519	0.8088794252841569	0.40134124416163086	0.6775668275244969	0.8052221118719673	0.3261393126396967	0.9259200231545592	0.8025119167219139	0.20256790639310163	0.48740741536461685	-0.10389952941463507	0.17529521440533213	0.7034978579015626	0.33278430744032117	0.17686932140130773	0.8295798060533177	0.7366925919276873	0.2086777253954068	0.6726225937573957	0.8001459933040999	0.1565671775884118	0.6916959035156233	0.7902968157524826	0.1976427771496032	0.8948710375922513	0.8048560612650888	0.30640530630297896	0.3771907567856798	-0.6441820392379438	0.3303756152094048	0.25845893040638845	-0.8681960591359446	0.33068067282142616	0.24394685342993186	-0.7395142445540969	0.4501040427006376	0.38689160171140435	-0.5287229507493122	0.4515496011038065	0.4313812314898419	-0.2549137556712561	0.4242946420723197	0.4203348173399608	0.007835625404322194	0.37746824881004476	0.36962428211882	0.11990461511635736	0.39687124786508154	0.3832632988993185	0.14469785781274944	0.39784544455176274	0.42633627792894174	0.14106738975893335	0.15577825222709157	0.39877617505502344	-0.5606678114491712	0.14094969414094782	0.39521923793304653	-0.3020636699350222	0.17682256632861157	0.3559631030872311	-0.0442882467267262	0.23712981544512948	0.31367990389843203	0.050250555447391584	0.2091715745929821	0.33720893397371543	0.07145822418404098	0.17253578314484688	0.38390639033876367	0.06123445827895299
109	1.847457627118644	0.36792049472649613	0.4843647913559489	-0.09586925955315843	0.356850306368727	0.664393901106778	0.3296223747849002	0.3419779022184353	0.8522658369784248	0.757654114092501	0.3432603973776525	0.6363853737171753	0.8093744257278398	0.4002884601290156	0.6813383679402053	0.8054215610577938	0.32701334777774566	0.9276293660868682	0.8028974157990245	0.20374564115304125	0.48780899814819273	-0.10396855729687143	0.17532057516190316	0.7030698685610426	0.32930712632242565	0.17662093020078873	0.8287871637789743	0.7353811954351743	0.21009249488207488	0.6740616128359885	0.8025321864257776	0.15535706427200452	0.6959761992456279	0.790523588882239	0.19824374124297933	0.8957817374776921	0.8030665237168095	0.30638166226527624	0.3772258209803403	-0.6441996065693474	0.3303805383248487	0.2584892356795488	-0.8682117153613083	0.3299657509084767	0.2407783621637565	-0.7397047449410397	0.4501338804045155	0.3868841547485117	-0.528732310937948	0.4532203690903464	0.4322068319418047	-0.25462416518490183	0.42521689723641737	0.42229304660837635	0.009177974764098911	0.38366117445799275	0.3731553710280665	0.12203974647007948	0.4060786160407829	0.37447956015692846	0.14473998790061043	0.403258211851396	0.42771963080897485	0.14166249137860557	0.1546272210868132	0.3979102543660337	-0.5614221063777599	0.1398909083847217	0.39496427541253754	-0.3020442598794723	0.17690083221687128	0.35441443101856374	-0.047324303196458	0.23238372344171035	0.3190918009816575	0.047559572526266455	0.20293282739225693	0.3521149518585333	0.07224590688179508	0.17202582624987878	0.3841881248140149	0.057408171088125674
110	1.8644067796610169	0.3680863207269911	0.4856619961229034	-0.09675444408190667	0.3583167961510471	0.6647075914943003	0.32227856055293014	0.3419824360107493	0.8522972515170111	0.7576192712688508	0.34163224888533095	0.6364415994972662	0.8094778346967303	0.3999485581682519	0.6824804156393603	0.8054915880823925	0.32824394011695657	0.9325619042409942	0.8048193496173296	0.20567014017890564	0.4885829846125772	-0.10403615135089431	0.1752764536277057	0.7027241829026516	0.32706320268275796	0.1765371540663606	0.8284213716276909	0.734850207662163	0.2116487836649813	0.6747671911291238	0.8056448297847415	0.15378540437556193	0.7016867700786196	0.7907889459647912	0.19859272638525982	0.8954510755354904	0.8017021412213698	0.30636147740737424	0.3772140260591206	-0.6442347081279155	0.3299553724244375	0.2584835548529214	-0.867928433468963	0.32974797848946424	0.23939312495879597	-0.7397831654652594	0.4501508238303563	0.38688657370688795	-0.5287335994990737	0.4547665690406201	0.433068274955977	-0.25460961320129605	0.4272591108955257	0.4232884118381141	0.01064775430671588	0.395183852289536	0.36878498816972155	0.12325543981363211	0.41994370000546755	0.3591853132047821	0.14417021264723937	0.41028270499707026	0.42788645653122254	0.14271602237291697	0.15285102524455574	0.39565912367913586	-0.5615060402111022	0.13945541172197484	0.3948437080450743	-0.3020569154253485	0.1769249244672284	0.35303384643959346	-0.050030757868909814	0.22658533641456868	0.33118785653992766	0.045737407629663294	0.19783956046937007	0.3669144015660203	0.07283111516341159	0.17045503601469286	0.3882782172392846	0.055236131801575106
